G75*
G70*
%OFA0B0*%
%FSLAX24Y24*%
%IPPOS*%
%LPD*%
%AMOC8*
5,1,8,0,0,1.08239X$1,22.5*
%
%ADD10C,0.0000*%
%ADD11C,0.0020*%
%ADD12C,0.0060*%
%ADD13C,0.0100*%
%ADD14R,0.0200X0.0150*%
%ADD15C,0.0080*%
%ADD16C,0.0120*%
%ADD17C,0.0050*%
D10*
X001811Y000100D02*
X035811Y000100D01*
X035871Y000102D01*
X035932Y000107D01*
X035991Y000116D01*
X036050Y000129D01*
X036109Y000145D01*
X036166Y000165D01*
X036221Y000188D01*
X036276Y000215D01*
X036328Y000244D01*
X036379Y000277D01*
X036428Y000313D01*
X036474Y000351D01*
X036518Y000393D01*
X036560Y000437D01*
X036598Y000483D01*
X036634Y000532D01*
X036667Y000583D01*
X036696Y000635D01*
X036723Y000690D01*
X036746Y000745D01*
X036766Y000802D01*
X036782Y000861D01*
X036795Y000920D01*
X036804Y000979D01*
X036809Y001040D01*
X036811Y001100D01*
X036811Y009100D01*
X036809Y009160D01*
X036804Y009221D01*
X036795Y009280D01*
X036782Y009339D01*
X036766Y009398D01*
X036746Y009455D01*
X036723Y009510D01*
X036696Y009565D01*
X036667Y009617D01*
X036634Y009668D01*
X036598Y009717D01*
X036560Y009763D01*
X036518Y009807D01*
X036474Y009849D01*
X036428Y009887D01*
X036379Y009923D01*
X036328Y009956D01*
X036276Y009985D01*
X036221Y010012D01*
X036166Y010035D01*
X036109Y010055D01*
X036050Y010071D01*
X035991Y010084D01*
X035932Y010093D01*
X035871Y010098D01*
X035811Y010100D01*
X001811Y010100D01*
X001751Y010098D01*
X001690Y010093D01*
X001631Y010084D01*
X001572Y010071D01*
X001513Y010055D01*
X001456Y010035D01*
X001401Y010012D01*
X001346Y009985D01*
X001294Y009956D01*
X001243Y009923D01*
X001194Y009887D01*
X001148Y009849D01*
X001104Y009807D01*
X001062Y009763D01*
X001024Y009717D01*
X000988Y009668D01*
X000955Y009617D01*
X000926Y009565D01*
X000899Y009510D01*
X000876Y009455D01*
X000856Y009398D01*
X000840Y009339D01*
X000827Y009280D01*
X000818Y009221D01*
X000813Y009160D01*
X000811Y009100D01*
X000811Y001100D01*
X000813Y001040D01*
X000818Y000979D01*
X000827Y000920D01*
X000840Y000861D01*
X000856Y000802D01*
X000876Y000745D01*
X000899Y000690D01*
X000926Y000635D01*
X000955Y000583D01*
X000988Y000532D01*
X001024Y000483D01*
X001062Y000437D01*
X001104Y000393D01*
X001148Y000351D01*
X001194Y000313D01*
X001243Y000277D01*
X001294Y000244D01*
X001346Y000215D01*
X001401Y000188D01*
X001456Y000165D01*
X001513Y000145D01*
X001572Y000129D01*
X001631Y000116D01*
X001690Y000107D01*
X001751Y000102D01*
X001811Y000100D01*
X002181Y002100D02*
X002183Y002150D01*
X002189Y002200D01*
X002199Y002249D01*
X002213Y002297D01*
X002230Y002344D01*
X002251Y002389D01*
X002276Y002433D01*
X002304Y002474D01*
X002336Y002513D01*
X002370Y002550D01*
X002407Y002584D01*
X002447Y002614D01*
X002489Y002641D01*
X002533Y002665D01*
X002579Y002686D01*
X002626Y002702D01*
X002674Y002715D01*
X002724Y002724D01*
X002773Y002729D01*
X002824Y002730D01*
X002874Y002727D01*
X002923Y002720D01*
X002972Y002709D01*
X003020Y002694D01*
X003066Y002676D01*
X003111Y002654D01*
X003154Y002628D01*
X003195Y002599D01*
X003234Y002567D01*
X003270Y002532D01*
X003302Y002494D01*
X003332Y002454D01*
X003359Y002411D01*
X003382Y002367D01*
X003401Y002321D01*
X003417Y002273D01*
X003429Y002224D01*
X003437Y002175D01*
X003441Y002125D01*
X003441Y002075D01*
X003437Y002025D01*
X003429Y001976D01*
X003417Y001927D01*
X003401Y001879D01*
X003382Y001833D01*
X003359Y001789D01*
X003332Y001746D01*
X003302Y001706D01*
X003270Y001668D01*
X003234Y001633D01*
X003195Y001601D01*
X003154Y001572D01*
X003111Y001546D01*
X003066Y001524D01*
X003020Y001506D01*
X002972Y001491D01*
X002923Y001480D01*
X002874Y001473D01*
X002824Y001470D01*
X002773Y001471D01*
X002724Y001476D01*
X002674Y001485D01*
X002626Y001498D01*
X002579Y001514D01*
X002533Y001535D01*
X002489Y001559D01*
X002447Y001586D01*
X002407Y001616D01*
X002370Y001650D01*
X002336Y001687D01*
X002304Y001726D01*
X002276Y001767D01*
X002251Y001811D01*
X002230Y001856D01*
X002213Y001903D01*
X002199Y001951D01*
X002189Y002000D01*
X002183Y002050D01*
X002181Y002100D01*
X002181Y008100D02*
X002183Y008150D01*
X002189Y008200D01*
X002199Y008249D01*
X002213Y008297D01*
X002230Y008344D01*
X002251Y008389D01*
X002276Y008433D01*
X002304Y008474D01*
X002336Y008513D01*
X002370Y008550D01*
X002407Y008584D01*
X002447Y008614D01*
X002489Y008641D01*
X002533Y008665D01*
X002579Y008686D01*
X002626Y008702D01*
X002674Y008715D01*
X002724Y008724D01*
X002773Y008729D01*
X002824Y008730D01*
X002874Y008727D01*
X002923Y008720D01*
X002972Y008709D01*
X003020Y008694D01*
X003066Y008676D01*
X003111Y008654D01*
X003154Y008628D01*
X003195Y008599D01*
X003234Y008567D01*
X003270Y008532D01*
X003302Y008494D01*
X003332Y008454D01*
X003359Y008411D01*
X003382Y008367D01*
X003401Y008321D01*
X003417Y008273D01*
X003429Y008224D01*
X003437Y008175D01*
X003441Y008125D01*
X003441Y008075D01*
X003437Y008025D01*
X003429Y007976D01*
X003417Y007927D01*
X003401Y007879D01*
X003382Y007833D01*
X003359Y007789D01*
X003332Y007746D01*
X003302Y007706D01*
X003270Y007668D01*
X003234Y007633D01*
X003195Y007601D01*
X003154Y007572D01*
X003111Y007546D01*
X003066Y007524D01*
X003020Y007506D01*
X002972Y007491D01*
X002923Y007480D01*
X002874Y007473D01*
X002824Y007470D01*
X002773Y007471D01*
X002724Y007476D01*
X002674Y007485D01*
X002626Y007498D01*
X002579Y007514D01*
X002533Y007535D01*
X002489Y007559D01*
X002447Y007586D01*
X002407Y007616D01*
X002370Y007650D01*
X002336Y007687D01*
X002304Y007726D01*
X002276Y007767D01*
X002251Y007811D01*
X002230Y007856D01*
X002213Y007903D01*
X002199Y007951D01*
X002189Y008000D01*
X002183Y008050D01*
X002181Y008100D01*
X034181Y008100D02*
X034183Y008150D01*
X034189Y008200D01*
X034199Y008249D01*
X034213Y008297D01*
X034230Y008344D01*
X034251Y008389D01*
X034276Y008433D01*
X034304Y008474D01*
X034336Y008513D01*
X034370Y008550D01*
X034407Y008584D01*
X034447Y008614D01*
X034489Y008641D01*
X034533Y008665D01*
X034579Y008686D01*
X034626Y008702D01*
X034674Y008715D01*
X034724Y008724D01*
X034773Y008729D01*
X034824Y008730D01*
X034874Y008727D01*
X034923Y008720D01*
X034972Y008709D01*
X035020Y008694D01*
X035066Y008676D01*
X035111Y008654D01*
X035154Y008628D01*
X035195Y008599D01*
X035234Y008567D01*
X035270Y008532D01*
X035302Y008494D01*
X035332Y008454D01*
X035359Y008411D01*
X035382Y008367D01*
X035401Y008321D01*
X035417Y008273D01*
X035429Y008224D01*
X035437Y008175D01*
X035441Y008125D01*
X035441Y008075D01*
X035437Y008025D01*
X035429Y007976D01*
X035417Y007927D01*
X035401Y007879D01*
X035382Y007833D01*
X035359Y007789D01*
X035332Y007746D01*
X035302Y007706D01*
X035270Y007668D01*
X035234Y007633D01*
X035195Y007601D01*
X035154Y007572D01*
X035111Y007546D01*
X035066Y007524D01*
X035020Y007506D01*
X034972Y007491D01*
X034923Y007480D01*
X034874Y007473D01*
X034824Y007470D01*
X034773Y007471D01*
X034724Y007476D01*
X034674Y007485D01*
X034626Y007498D01*
X034579Y007514D01*
X034533Y007535D01*
X034489Y007559D01*
X034447Y007586D01*
X034407Y007616D01*
X034370Y007650D01*
X034336Y007687D01*
X034304Y007726D01*
X034276Y007767D01*
X034251Y007811D01*
X034230Y007856D01*
X034213Y007903D01*
X034199Y007951D01*
X034189Y008000D01*
X034183Y008050D01*
X034181Y008100D01*
X034181Y002100D02*
X034183Y002150D01*
X034189Y002200D01*
X034199Y002249D01*
X034213Y002297D01*
X034230Y002344D01*
X034251Y002389D01*
X034276Y002433D01*
X034304Y002474D01*
X034336Y002513D01*
X034370Y002550D01*
X034407Y002584D01*
X034447Y002614D01*
X034489Y002641D01*
X034533Y002665D01*
X034579Y002686D01*
X034626Y002702D01*
X034674Y002715D01*
X034724Y002724D01*
X034773Y002729D01*
X034824Y002730D01*
X034874Y002727D01*
X034923Y002720D01*
X034972Y002709D01*
X035020Y002694D01*
X035066Y002676D01*
X035111Y002654D01*
X035154Y002628D01*
X035195Y002599D01*
X035234Y002567D01*
X035270Y002532D01*
X035302Y002494D01*
X035332Y002454D01*
X035359Y002411D01*
X035382Y002367D01*
X035401Y002321D01*
X035417Y002273D01*
X035429Y002224D01*
X035437Y002175D01*
X035441Y002125D01*
X035441Y002075D01*
X035437Y002025D01*
X035429Y001976D01*
X035417Y001927D01*
X035401Y001879D01*
X035382Y001833D01*
X035359Y001789D01*
X035332Y001746D01*
X035302Y001706D01*
X035270Y001668D01*
X035234Y001633D01*
X035195Y001601D01*
X035154Y001572D01*
X035111Y001546D01*
X035066Y001524D01*
X035020Y001506D01*
X034972Y001491D01*
X034923Y001480D01*
X034874Y001473D01*
X034824Y001470D01*
X034773Y001471D01*
X034724Y001476D01*
X034674Y001485D01*
X034626Y001498D01*
X034579Y001514D01*
X034533Y001535D01*
X034489Y001559D01*
X034447Y001586D01*
X034407Y001616D01*
X034370Y001650D01*
X034336Y001687D01*
X034304Y001726D01*
X034276Y001767D01*
X034251Y001811D01*
X034230Y001856D01*
X034213Y001903D01*
X034199Y001951D01*
X034189Y002000D01*
X034183Y002050D01*
X034181Y002100D01*
D11*
X009988Y003303D02*
X009988Y003397D01*
X009965Y003420D01*
X009895Y003420D01*
X009895Y003280D01*
X009965Y003280D01*
X009988Y003303D01*
X009841Y003280D02*
X009841Y003420D01*
X009747Y003420D02*
X009841Y003280D01*
X009747Y003280D02*
X009747Y003420D01*
X009693Y003397D02*
X009670Y003420D01*
X009623Y003420D01*
X009600Y003397D01*
X009600Y003303D01*
X009623Y003280D01*
X009670Y003280D01*
X009693Y003303D01*
X009693Y003350D01*
X009647Y003350D01*
X008963Y003303D02*
X008963Y003397D01*
X008940Y003420D01*
X008893Y003420D01*
X008870Y003397D01*
X008870Y003303D01*
X008893Y003280D01*
X008940Y003280D01*
X008963Y003303D01*
X008816Y003303D02*
X008793Y003280D01*
X008746Y003280D01*
X008723Y003303D01*
X008746Y003350D02*
X008793Y003350D01*
X008816Y003327D01*
X008816Y003303D01*
X008746Y003350D02*
X008723Y003373D01*
X008723Y003397D01*
X008746Y003420D01*
X008793Y003420D01*
X008816Y003397D01*
X008671Y003420D02*
X008624Y003420D01*
X008648Y003420D02*
X008648Y003280D01*
X008671Y003280D02*
X008624Y003280D01*
X007988Y003303D02*
X007965Y003280D01*
X007918Y003280D01*
X007895Y003303D01*
X007895Y003397D01*
X007918Y003420D01*
X007965Y003420D01*
X007988Y003397D01*
X007841Y003397D02*
X007817Y003420D01*
X007771Y003420D01*
X007747Y003397D01*
X007747Y003303D01*
X007771Y003280D01*
X007817Y003280D01*
X007841Y003303D01*
X007693Y003327D02*
X007693Y003420D01*
X007600Y003420D02*
X007600Y003327D01*
X007647Y003280D01*
X007693Y003327D01*
X006988Y003420D02*
X006895Y003420D01*
X006941Y003420D02*
X006941Y003280D01*
X006841Y003303D02*
X006817Y003280D01*
X006771Y003280D01*
X006747Y003303D01*
X006771Y003350D02*
X006817Y003350D01*
X006841Y003327D01*
X006841Y003303D01*
X006771Y003350D02*
X006747Y003373D01*
X006747Y003397D01*
X006771Y003420D01*
X006817Y003420D01*
X006841Y003397D01*
X006693Y003397D02*
X006693Y003350D01*
X006670Y003327D01*
X006600Y003327D01*
X006647Y003327D02*
X006693Y003280D01*
X006600Y003280D02*
X006600Y003420D01*
X006670Y003420D01*
X006693Y003397D01*
X005988Y003420D02*
X005895Y003327D01*
X005918Y003350D02*
X005988Y003280D01*
X005895Y003280D02*
X005895Y003420D01*
X005841Y003397D02*
X005817Y003420D01*
X005771Y003420D01*
X005747Y003397D01*
X005747Y003303D01*
X005771Y003280D01*
X005817Y003280D01*
X005841Y003303D01*
X005693Y003303D02*
X005670Y003280D01*
X005623Y003280D01*
X005600Y003303D01*
X005623Y003350D02*
X005670Y003350D01*
X005693Y003327D01*
X005693Y003303D01*
X005623Y003350D02*
X005600Y003373D01*
X005600Y003397D01*
X005623Y003420D01*
X005670Y003420D01*
X005693Y003397D01*
X004966Y003420D02*
X004919Y003420D01*
X004942Y003420D02*
X004942Y003280D01*
X004919Y003280D02*
X004966Y003280D01*
X004865Y003303D02*
X004842Y003280D01*
X004795Y003280D01*
X004772Y003303D01*
X004795Y003350D02*
X004842Y003350D01*
X004865Y003327D01*
X004865Y003303D01*
X004795Y003350D02*
X004772Y003373D01*
X004772Y003397D01*
X004795Y003420D01*
X004842Y003420D01*
X004865Y003397D01*
X004718Y003397D02*
X004718Y003303D01*
X004694Y003280D01*
X004648Y003280D01*
X004624Y003303D01*
X004624Y003397D01*
X004648Y003420D01*
X004694Y003420D01*
X004718Y003397D01*
D12*
X016311Y003750D02*
X016311Y006450D01*
X016313Y006467D01*
X016317Y006484D01*
X016324Y006500D01*
X016334Y006514D01*
X016347Y006527D01*
X016361Y006537D01*
X016377Y006544D01*
X016394Y006548D01*
X016411Y006550D01*
X017211Y006550D01*
X017228Y006548D01*
X017245Y006544D01*
X017261Y006537D01*
X017275Y006527D01*
X017288Y006514D01*
X017298Y006500D01*
X017305Y006484D01*
X017309Y006467D01*
X017311Y006450D01*
X017311Y003750D01*
X017309Y003733D01*
X017305Y003716D01*
X017298Y003700D01*
X017288Y003686D01*
X017275Y003673D01*
X017261Y003663D01*
X017245Y003656D01*
X017228Y003652D01*
X017211Y003650D01*
X016411Y003650D01*
X016394Y003652D01*
X016377Y003656D01*
X016361Y003663D01*
X016347Y003673D01*
X016334Y003686D01*
X016324Y003700D01*
X016317Y003716D01*
X016313Y003733D01*
X016311Y003750D01*
X016811Y004500D02*
X016811Y004970D01*
X016811Y005220D02*
X016811Y005700D01*
X020311Y006450D02*
X020311Y003750D01*
X020313Y003733D01*
X020317Y003716D01*
X020324Y003700D01*
X020334Y003686D01*
X020347Y003673D01*
X020361Y003663D01*
X020377Y003656D01*
X020394Y003652D01*
X020411Y003650D01*
X021211Y003650D01*
X021228Y003652D01*
X021245Y003656D01*
X021261Y003663D01*
X021275Y003673D01*
X021288Y003686D01*
X021298Y003700D01*
X021305Y003716D01*
X021309Y003733D01*
X021311Y003750D01*
X021311Y006450D01*
X021309Y006467D01*
X021305Y006484D01*
X021298Y006500D01*
X021288Y006514D01*
X021275Y006527D01*
X021261Y006537D01*
X021245Y006544D01*
X021228Y006548D01*
X021211Y006550D01*
X020411Y006550D01*
X020394Y006548D01*
X020377Y006544D01*
X020361Y006537D01*
X020347Y006527D01*
X020334Y006514D01*
X020324Y006500D01*
X020317Y006484D01*
X020313Y006467D01*
X020311Y006450D01*
X020811Y005700D02*
X020811Y005220D01*
X020811Y004970D02*
X020811Y004500D01*
X024131Y004395D02*
X024131Y005805D01*
X024221Y005405D02*
X024223Y005434D01*
X024229Y005462D01*
X024238Y005489D01*
X024252Y005514D01*
X024268Y005538D01*
X024288Y005558D01*
X024310Y005577D01*
X024334Y005591D01*
X024361Y005603D01*
X024388Y005611D01*
X024417Y005615D01*
X024445Y005615D01*
X024474Y005611D01*
X024501Y005603D01*
X024528Y005591D01*
X024552Y005577D01*
X024574Y005558D01*
X024594Y005538D01*
X024610Y005514D01*
X024624Y005489D01*
X024633Y005462D01*
X024639Y005434D01*
X024641Y005405D01*
X024639Y005376D01*
X024633Y005348D01*
X024624Y005321D01*
X024610Y005296D01*
X024594Y005272D01*
X024574Y005252D01*
X024552Y005233D01*
X024528Y005219D01*
X024501Y005207D01*
X024474Y005199D01*
X024445Y005195D01*
X024417Y005195D01*
X024388Y005199D01*
X024361Y005207D01*
X024334Y005219D01*
X024310Y005233D01*
X024288Y005252D01*
X024268Y005272D01*
X024252Y005296D01*
X024238Y005321D01*
X024229Y005348D01*
X024223Y005376D01*
X024221Y005405D01*
X027491Y005805D02*
X027491Y004395D01*
X024473Y002627D02*
X024473Y002521D01*
X024150Y002521D02*
X024043Y002521D01*
X024043Y001880D01*
X024150Y001880D02*
X023936Y001880D01*
X023720Y001880D02*
X023613Y001880D01*
X023613Y001987D01*
X023720Y001987D01*
X023720Y001880D01*
X023398Y001987D02*
X023291Y001880D01*
X022971Y001880D01*
X022753Y001987D02*
X022646Y001880D01*
X022433Y001880D01*
X022326Y001987D01*
X022326Y002200D01*
X022433Y002307D01*
X022646Y002307D01*
X022753Y002200D01*
X022753Y001987D01*
X023291Y002307D02*
X023398Y002200D01*
X023398Y001987D01*
X023291Y002307D02*
X022971Y002307D01*
X022109Y002307D02*
X022002Y002307D01*
X021895Y002200D01*
X021788Y002307D01*
X021682Y002200D01*
X021682Y001880D01*
X021895Y001880D02*
X021895Y002200D01*
X022109Y002307D02*
X022109Y001880D01*
X024366Y001880D02*
X024579Y001880D01*
X024473Y001880D02*
X024473Y002307D01*
X024579Y002307D01*
X024797Y002200D02*
X024797Y001880D01*
X025117Y001880D01*
X025224Y001987D01*
X025117Y002094D01*
X024797Y002094D01*
X024797Y002200D02*
X024904Y002307D01*
X025117Y002307D01*
X025442Y002200D02*
X025442Y001880D01*
X025655Y001880D02*
X025655Y002200D01*
X025548Y002307D01*
X025442Y002200D01*
X025655Y002200D02*
X025762Y002307D01*
X025869Y002307D01*
X025869Y001880D01*
X026086Y001880D02*
X026406Y001880D01*
X026513Y001987D01*
X026513Y002200D01*
X026406Y002307D01*
X026086Y002307D01*
X026086Y001773D01*
X026193Y001666D01*
X026300Y001666D01*
X026731Y001987D02*
X026837Y001880D01*
X027051Y001880D01*
X027158Y001987D01*
X027158Y002414D01*
X027051Y002521D01*
X026837Y002521D01*
X026731Y002414D01*
X026731Y002200D01*
X026837Y002094D01*
X026837Y002307D01*
X027051Y002307D01*
X027051Y002094D01*
X026837Y002094D01*
X027374Y002307D02*
X027481Y002307D01*
X027695Y002094D01*
X027912Y002094D02*
X028339Y002094D01*
X028339Y002200D02*
X028339Y001987D01*
X028233Y001880D01*
X028019Y001880D01*
X027695Y001880D02*
X027695Y002307D01*
X027912Y002200D02*
X028019Y002307D01*
X028233Y002307D01*
X028339Y002200D01*
X028557Y002307D02*
X028877Y002307D01*
X028984Y002200D01*
X028984Y001987D01*
X028877Y001880D01*
X028557Y001880D01*
X028557Y001773D02*
X028557Y002307D01*
X029201Y002200D02*
X029201Y001880D01*
X029628Y001880D02*
X029628Y002307D01*
X029308Y002307D01*
X029201Y002200D01*
X029846Y002200D02*
X029846Y001880D01*
X030166Y001880D01*
X030273Y001987D01*
X030166Y002094D01*
X029846Y002094D01*
X029846Y002200D02*
X029953Y002307D01*
X030166Y002307D01*
X030490Y002307D02*
X030811Y002307D01*
X030918Y002200D01*
X030918Y001987D01*
X030811Y001880D01*
X030490Y001880D01*
X030490Y002521D01*
X031135Y002307D02*
X031135Y001987D01*
X031242Y001880D01*
X031349Y001987D01*
X031455Y001880D01*
X031562Y001987D01*
X031562Y002307D01*
X031780Y002200D02*
X031886Y002307D01*
X032100Y002307D01*
X032207Y002200D01*
X032207Y001987D01*
X032100Y001880D01*
X031886Y001880D01*
X031780Y001987D01*
X031780Y002200D01*
X032423Y001880D02*
X032636Y001880D01*
X032530Y001880D02*
X032530Y002521D01*
X032636Y002521D01*
X032854Y002307D02*
X033174Y002307D01*
X033281Y002200D01*
X033174Y002094D01*
X032961Y002094D01*
X032854Y001987D01*
X032961Y001880D01*
X033281Y001880D01*
X028770Y001666D02*
X028664Y001666D01*
X028557Y001773D01*
X027912Y002094D02*
X027912Y002200D01*
X034511Y004100D02*
X035111Y004100D01*
X035128Y004102D01*
X035145Y004106D01*
X035161Y004113D01*
X035175Y004123D01*
X035188Y004136D01*
X035198Y004150D01*
X035205Y004166D01*
X035209Y004183D01*
X035211Y004200D01*
X035211Y004350D01*
X035161Y004400D01*
X035161Y005800D01*
X035211Y005850D01*
X035211Y006000D01*
X035209Y006017D01*
X035205Y006034D01*
X035198Y006050D01*
X035188Y006064D01*
X035175Y006077D01*
X035161Y006087D01*
X035145Y006094D01*
X035128Y006098D01*
X035111Y006100D01*
X034511Y006100D01*
X034494Y006098D01*
X034477Y006094D01*
X034461Y006087D01*
X034447Y006077D01*
X034434Y006064D01*
X034424Y006050D01*
X034417Y006034D01*
X034413Y006017D01*
X034411Y006000D01*
X034411Y005850D01*
X034461Y005800D01*
X034461Y004400D01*
X034411Y004350D01*
X034411Y004200D01*
X034413Y004183D01*
X034417Y004166D01*
X034424Y004150D01*
X034434Y004136D01*
X034447Y004123D01*
X034461Y004113D01*
X034477Y004106D01*
X034494Y004102D01*
X034511Y004100D01*
X033281Y007880D02*
X033281Y008521D01*
X033067Y008307D01*
X032854Y008521D01*
X032854Y007880D01*
X032636Y007880D02*
X032423Y007880D01*
X032530Y007880D02*
X032530Y008307D01*
X032636Y008307D01*
X032207Y008200D02*
X032207Y007987D01*
X032100Y007880D01*
X031780Y007880D01*
X031562Y007880D02*
X031562Y008521D01*
X031455Y008307D02*
X031242Y008307D01*
X031135Y008200D01*
X031135Y007880D01*
X030918Y007987D02*
X030811Y008094D01*
X030490Y008094D01*
X030490Y008200D02*
X030490Y007880D01*
X030811Y007880D01*
X030918Y007987D01*
X030273Y007987D02*
X030273Y008200D01*
X030166Y008307D01*
X029953Y008307D01*
X029846Y008200D01*
X029846Y008094D01*
X030273Y008094D01*
X030273Y007987D02*
X030166Y007880D01*
X029953Y007880D01*
X029628Y007880D02*
X029415Y007880D01*
X029522Y007880D02*
X029522Y008521D01*
X029628Y008521D01*
X030490Y008200D02*
X030597Y008307D01*
X030811Y008307D01*
X031455Y008307D02*
X031562Y008200D01*
X031780Y008307D02*
X032100Y008307D01*
X032207Y008200D01*
X032530Y008521D02*
X032530Y008627D01*
X028554Y008521D02*
X028554Y007880D01*
X028127Y007880D01*
X027696Y007880D02*
X027483Y008307D01*
X027265Y008200D02*
X027158Y008307D01*
X026945Y008307D01*
X026838Y008200D01*
X026838Y008094D01*
X027265Y008094D01*
X027265Y008200D02*
X027265Y007987D01*
X027158Y007880D01*
X026945Y007880D01*
X026621Y007880D02*
X026621Y008307D01*
X026621Y008094D02*
X026407Y008307D01*
X026300Y008307D01*
X026083Y008200D02*
X025977Y008307D01*
X025763Y008307D01*
X025656Y008200D01*
X025656Y008094D01*
X026083Y008094D01*
X026083Y008200D02*
X026083Y007987D01*
X025977Y007880D01*
X025763Y007880D01*
X025332Y007987D02*
X025225Y007880D01*
X025332Y007987D02*
X025332Y008414D01*
X025439Y008307D02*
X025225Y008307D01*
X025009Y008307D02*
X024796Y008307D01*
X024902Y008414D02*
X024902Y007987D01*
X024796Y007880D01*
X023935Y007880D02*
X023935Y008521D01*
X023615Y008521D01*
X023508Y008414D01*
X023508Y008200D01*
X023615Y008094D01*
X023935Y008094D01*
X023721Y008094D02*
X023508Y007880D01*
X023290Y007987D02*
X023184Y007880D01*
X022863Y007880D01*
X022863Y008307D01*
X022216Y008200D02*
X022109Y008307D01*
X021896Y008307D01*
X021789Y008200D01*
X021789Y008094D01*
X022216Y008094D01*
X022216Y008200D02*
X022216Y007987D01*
X022109Y007880D01*
X021896Y007880D01*
X022432Y007880D02*
X022646Y007880D01*
X022539Y007880D02*
X022539Y008521D01*
X022646Y008521D01*
X023290Y008307D02*
X023290Y007987D01*
X019531Y007987D02*
X019424Y007880D01*
X019211Y007880D01*
X019104Y007987D01*
X019104Y008094D01*
X019211Y008200D01*
X019531Y008200D01*
X019531Y007987D01*
X018886Y007880D02*
X018459Y007880D01*
X018673Y007880D02*
X018673Y008521D01*
X018886Y008307D01*
X019104Y008521D02*
X019317Y008414D01*
X019531Y008200D01*
X018242Y008200D02*
X018242Y008521D01*
X017815Y008521D01*
X017597Y008200D02*
X017384Y008414D01*
X017170Y008521D01*
X016953Y008200D02*
X016739Y008414D01*
X016526Y008521D01*
X016632Y008200D02*
X016953Y008200D01*
X016953Y007987D01*
X016846Y007880D01*
X016632Y007880D01*
X016526Y007987D01*
X016526Y008094D01*
X016632Y008200D01*
X017170Y008094D02*
X017277Y008200D01*
X017597Y008200D01*
X017597Y007987D01*
X017490Y007880D01*
X017277Y007880D01*
X017170Y007987D01*
X017170Y008094D01*
X017815Y008200D02*
X017921Y008307D01*
X018028Y008307D01*
X018242Y008200D01*
X017815Y008200D02*
X017815Y007987D01*
X017921Y007880D01*
X018135Y007880D01*
X018242Y007987D01*
X014311Y007850D02*
X014061Y007600D01*
X013561Y007600D01*
X013311Y007850D01*
X013061Y007600D01*
X012561Y007600D01*
X012311Y007850D01*
X012061Y007600D01*
X011561Y007600D01*
X011311Y007850D01*
X011061Y007600D01*
X010561Y007600D01*
X010311Y007850D01*
X010061Y007600D01*
X009561Y007600D01*
X009311Y007850D01*
X009311Y008350D01*
X009561Y008600D01*
X010061Y008600D01*
X010311Y008350D01*
X010311Y007850D01*
X010311Y008350D01*
X010561Y008600D01*
X011061Y008600D01*
X011311Y008350D01*
X011311Y007850D01*
X011311Y008350D01*
X011561Y008600D01*
X012061Y008600D01*
X012311Y008350D01*
X012311Y007850D01*
X012311Y008350D01*
X012561Y008600D01*
X013061Y008600D01*
X013311Y008350D01*
X013311Y007850D01*
X013311Y008350D01*
X013561Y008600D01*
X014061Y008600D01*
X014311Y008350D01*
X014311Y007850D01*
X009311Y007850D02*
X009061Y007600D01*
X008561Y007600D01*
X008311Y007850D01*
X008061Y007600D01*
X007561Y007600D01*
X007311Y007850D01*
X007061Y007600D01*
X006561Y007600D01*
X006311Y007850D01*
X006061Y007600D01*
X005561Y007600D01*
X005311Y007850D01*
X005061Y007600D01*
X004561Y007600D01*
X004311Y007850D01*
X004311Y008350D01*
X004561Y008600D01*
X005061Y008600D01*
X005311Y008350D01*
X005311Y007850D01*
X005311Y008350D01*
X005561Y008600D01*
X006061Y008600D01*
X006311Y008350D01*
X006311Y007850D01*
X006311Y008350D01*
X006561Y008600D01*
X007061Y008600D01*
X007311Y008350D01*
X007311Y007850D01*
X007311Y008350D01*
X007561Y008600D01*
X008061Y008600D01*
X008311Y008350D01*
X008311Y007850D01*
X008311Y008350D01*
X008561Y008600D01*
X009061Y008600D01*
X009311Y008350D01*
X009311Y007850D01*
X027696Y007880D02*
X027910Y008307D01*
X028341Y008200D02*
X028554Y008200D01*
X028554Y008521D02*
X028127Y008521D01*
D13*
X027561Y005850D02*
X024061Y005850D01*
X024061Y004350D01*
X027561Y004350D01*
X027561Y005850D01*
D14*
X034811Y006175D03*
X034811Y004025D03*
D15*
X033311Y003850D02*
X033311Y004350D01*
X033061Y004600D01*
X032561Y004600D01*
X032311Y004350D01*
X032061Y004600D01*
X031561Y004600D01*
X031311Y004350D01*
X031061Y004600D01*
X030561Y004600D01*
X030311Y004350D01*
X030061Y004600D01*
X029561Y004600D01*
X029311Y004350D01*
X029311Y003850D01*
X029561Y003600D01*
X030061Y003600D01*
X030311Y003850D01*
X030561Y003600D01*
X031061Y003600D01*
X031311Y003850D01*
X031561Y003600D01*
X032061Y003600D01*
X032311Y003850D01*
X032561Y003600D01*
X033061Y003600D01*
X033311Y003850D01*
X010311Y003800D02*
X010061Y003550D01*
X009561Y003550D01*
X009311Y003800D01*
X009311Y004300D01*
X009061Y004550D01*
X008561Y004550D01*
X008311Y004300D01*
X008311Y003800D01*
X008561Y003550D01*
X009061Y003550D01*
X009311Y003800D01*
X010311Y003800D02*
X010311Y004300D01*
X010061Y004550D01*
X009561Y004550D01*
X009311Y004300D01*
X008311Y004300D02*
X008061Y004550D01*
X007561Y004550D01*
X007311Y004300D01*
X007311Y003800D01*
X007561Y003550D01*
X008061Y003550D01*
X008311Y003800D01*
X007311Y003800D02*
X007061Y003550D01*
X006561Y003550D01*
X006311Y003800D01*
X006311Y004300D01*
X006061Y004550D01*
X005561Y004550D01*
X005311Y004300D01*
X005311Y003800D01*
X005561Y003550D01*
X006061Y003550D01*
X006311Y003800D01*
X005311Y003800D02*
X005061Y003550D01*
X004561Y003550D01*
X004311Y003800D01*
X004311Y004300D01*
X004561Y004550D01*
X005061Y004550D01*
X005311Y004300D01*
X006311Y004300D02*
X006561Y004550D01*
X007061Y004550D01*
X007311Y004300D01*
D16*
X016561Y004970D02*
X016811Y004970D01*
X017061Y004970D01*
X017061Y005220D02*
X016811Y005220D01*
X016561Y005220D01*
X020561Y005220D02*
X020811Y005220D01*
X021061Y005220D01*
X021061Y004970D02*
X020811Y004970D01*
X020561Y004970D01*
D17*
X019311Y002850D02*
X019311Y002600D01*
X019436Y002725D01*
X019436Y002600D01*
X019311Y002475D01*
X019311Y002600D01*
X019186Y002725D01*
X019186Y002850D01*
X019061Y002725D01*
X019061Y002850D01*
X018936Y002725D01*
X019061Y002600D01*
X018561Y002600D01*
X018311Y002350D01*
X017936Y001975D01*
X018186Y001975D01*
X018311Y001850D01*
X018311Y001600D01*
X018061Y001850D01*
X018061Y002100D01*
X018061Y002350D01*
X017936Y002225D01*
X017811Y002225D01*
X017936Y002100D01*
X017811Y002100D01*
X017936Y001975D01*
X017811Y001975D01*
X018061Y001725D01*
X018061Y001600D01*
X018561Y001100D01*
X018561Y001850D01*
X018311Y001850D01*
X019061Y001100D01*
X019061Y001350D01*
X019061Y001850D01*
X019311Y001850D01*
X019311Y001600D01*
X019561Y001850D01*
X019561Y002100D01*
X019561Y002350D01*
X019436Y002475D01*
X019436Y002600D01*
X019561Y002600D02*
X019561Y002475D01*
X019686Y002600D01*
X019686Y002475D01*
X019811Y002475D01*
X019686Y002350D01*
X019686Y002475D01*
X019561Y002475D01*
X019561Y002350D01*
X019686Y002225D01*
X019811Y002225D01*
X019686Y002100D01*
X019811Y002100D01*
X019686Y001975D01*
X019311Y002350D01*
X019061Y002600D01*
X019311Y002600D01*
X019061Y002350D01*
X018811Y002600D01*
X018561Y002350D01*
X018311Y002600D01*
X018186Y002725D01*
X018186Y002600D01*
X018186Y002475D01*
X018061Y002350D01*
X018311Y002350D01*
X018311Y002100D01*
X018561Y001850D01*
X018811Y001850D01*
X019061Y001850D01*
X019311Y002100D01*
X019311Y002350D01*
X019561Y002350D01*
X019686Y002350D01*
X019811Y002350D01*
X019686Y002225D01*
X019561Y002100D01*
X019436Y001975D01*
X019686Y001975D01*
X019811Y001975D01*
X019561Y001725D01*
X019561Y001600D01*
X019061Y001100D01*
X018936Y000975D01*
X018686Y000975D01*
X018561Y001100D01*
X019311Y001850D01*
X019436Y001975D01*
X019561Y001850D01*
X019311Y001850D01*
X019436Y001975D02*
X019311Y002100D01*
X019561Y002350D01*
X019436Y002475D02*
X019311Y002350D01*
X019311Y002475D01*
X019436Y002475D02*
X019561Y002600D01*
X019311Y002850D02*
X019186Y002725D01*
X019061Y002600D01*
X019061Y002725D01*
X019061Y002600D02*
X019061Y002350D01*
X019061Y002100D01*
X019311Y002100D01*
X019561Y002100D01*
X019686Y002100D01*
X019686Y001975D02*
X019561Y001850D01*
X019561Y001725D01*
X019311Y001600D02*
X019061Y001350D01*
X018561Y001350D01*
X018311Y001600D01*
X018061Y001725D02*
X018061Y001850D01*
X018311Y001850D01*
X018186Y001975D02*
X018061Y002100D01*
X017936Y002225D01*
X017811Y002350D01*
X017936Y002350D01*
X017811Y002475D01*
X017936Y002475D01*
X017936Y002600D01*
X018061Y002475D01*
X017936Y002475D01*
X017936Y002350D01*
X018061Y002350D01*
X018061Y002475D01*
X018061Y002600D01*
X018186Y002475D01*
X018311Y002350D01*
X018311Y002475D01*
X018186Y002600D01*
X018311Y002600D02*
X018436Y002725D01*
X018436Y002850D01*
X018561Y002725D01*
X018561Y002600D01*
X018311Y002600D01*
X018311Y002850D01*
X018436Y002725D01*
X018561Y002600D01*
X018686Y002725D01*
X018686Y002850D01*
X018811Y002725D01*
X018811Y002600D01*
X018811Y002350D01*
X019061Y002600D01*
X018936Y002725D02*
X018936Y002850D01*
X018811Y002725D01*
X018936Y002725D02*
X018811Y002600D01*
X018686Y002725D01*
X018561Y002850D01*
X018561Y002725D01*
X018561Y002600D02*
X018561Y002350D01*
X018561Y002100D01*
X018311Y002100D01*
X018186Y001975D01*
X018061Y001850D01*
X017936Y001975D01*
X017936Y002100D02*
X018061Y002100D01*
X018311Y002100D01*
X018061Y002350D01*
X018311Y002350D02*
X018561Y002100D01*
X018811Y001850D01*
X019061Y002100D01*
X019311Y002350D01*
X018811Y002350D02*
X018561Y002600D01*
X018311Y002600D02*
X018311Y002475D01*
X018811Y002350D02*
X018811Y001850D01*
X018811Y001100D01*
X019061Y001350D01*
X018811Y001100D02*
X018561Y001350D01*
X018811Y001100D02*
X018811Y000850D01*
X018686Y000975D01*
X018811Y000850D02*
X018936Y000975D01*
M02*
