%
M48
M72
T01C0.0120
T02C0.0320
T03C0.0400
T04C0.1260
%
T01
X10811Y2300
X12811Y1300
X19011Y1700
X21811Y900
X25811Y1900
X25211Y2300
X23811Y2500
X22811Y2900
X24811Y3300
X27811Y4500
X25611Y4700
X25011Y5500
X23811Y6500
X25811Y7100
X24811Y7300
X26811Y6900
X28811Y6100
X18811Y6500
X13811Y5700
X12411Y6100
X11411Y6100
X11811Y6900
X13011Y7500
X8411Y7700
X4811Y6900
X18011Y3700
X28811Y1900
X29611Y1700
T02
X1311Y1100
X2311Y1100
X3311Y1100
X4311Y1100
X5311Y1100
X6311Y1100
X7311Y1100
X8311Y1100
X9311Y1100
X10311Y1100
X11311Y1100
X12311Y1100
X13311Y1100
X14311Y1100
X15311Y1100
X16311Y1100
X17311Y1100
X18311Y1100
X19311Y1100
X20311Y1100
X21311Y1100
X22311Y1100
X23311Y1100
X24311Y1100
X25311Y1100
X26311Y1100
X27311Y1100
X28311Y1100
X29311Y1100
X30311Y1100
X31311Y1100
X32311Y1100
X33311Y1100
X34311Y1100
X35311Y1100
X36311Y1100
X36311Y3100
X35311Y3100
X34311Y3100
X33311Y3100
X32311Y3100
X31311Y3100
X30311Y3100
X29311Y3100
X28311Y3100
X27311Y3100
X26311Y3100
X25311Y3100
X24311Y3100
X23311Y3100
X22311Y3100
X21311Y3100
X20311Y3100
X19311Y3100
X18311Y3100
X17311Y3100
X16311Y3100
X15311Y3100
X14311Y3100
X13311Y3100
X12311Y3100
X11311Y3100
X10311Y3100
X9311Y3100
X8311Y3100
X7311Y3100
X6311Y3100
X5311Y3100
X4311Y3100
X3311Y3100
X2311Y3100
X1311Y3100
X1311Y5100
X2311Y5100
X3311Y5100
X4311Y5100
X5311Y5100
X6311Y5100
X7311Y5100
X8311Y5100
X9311Y5100
X10311Y5100
X11311Y5100
X12311Y5100
X13311Y5100
X14311Y5100
X15311Y5100
X16311Y5100
X17311Y5100
X18311Y5100
X19311Y5100
X20311Y5100
X21311Y5100
X22311Y5100
X23311Y5100
X24311Y5100
X25311Y5100
X26311Y5100
X27311Y5100
X28311Y5100
X29311Y5100
X30311Y5100
X31311Y5100
X32311Y5100
X33311Y5100
X34311Y5100
X35311Y5100
X36311Y5100
X34811Y6600
X35311Y7100
X36311Y7100
X34311Y7100
X33311Y7100
X32311Y7100
X31311Y7100
X30311Y7100
X29311Y7100
X28311Y7100
X27311Y7100
X26311Y7100
X25311Y7100
X24311Y7100
X23311Y7100
X22311Y7100
X21311Y7100
X20311Y7100
X19311Y7100
X18311Y7100
X17311Y7100
X16311Y7100
X15311Y7100
X14311Y7100
X13311Y7100
X12311Y7100
X11311Y7100
X10311Y7100
X9311Y7100
X8311Y7100
X7311Y7100
X6311Y7100
X5311Y7100
X4311Y7100
X3311Y7100
X2311Y7100
X1311Y7100
X1311Y9100
X2311Y9100
X3311Y9100
X4311Y9100
X5311Y9100
X6311Y9100
X7311Y9100
X8311Y9100
X9311Y9100
X10311Y9100
X11311Y9100
X12311Y9100
X13311Y9100
X14311Y9100
X15311Y9100
X16311Y9100
X17311Y9100
X18311Y9100
X19311Y9100
X20311Y9100
X21311Y9100
X22311Y9100
X23311Y9100
X24311Y9100
X25311Y9100
X26311Y9100
X27311Y9100
X28311Y9100
X29311Y9100
X30311Y9100
X31311Y9100
X32311Y9100
X33311Y9100
X34311Y9100
X35311Y9100
X36311Y9100
X20811Y6100
X16811Y6100
X16811Y4100
X20811Y4100
X34811Y3600
T03
X32811Y4150
X31811Y4050
X30811Y4150
X29811Y4050
X13811Y8100
X12811Y8100
X11811Y8100
X10811Y8100
X9811Y8100
X8811Y8100
X7811Y8100
X6811Y8100
X5811Y8100
X4811Y8100
X5811Y4100
X4811Y4000
X6811Y4000
X7811Y4100
X8811Y4000
X9811Y4100
T04
X2811Y2100
X2811Y8100
X34811Y8100
X34811Y2100
M30
